<svg width="30" height="30" viewBox="0 0 30 30" fill="none" xmlns="http://www.w3.org/2000/svg">
<path d="M27.1852 4.74372C26.7951 4.7572 26.4317 4.84616 26.1117 4.94742C25.812 5.04182 24.6669 5.42637 22.8633 6.032C21.0581 6.63815 18.6678 7.44169 16.118 8.30025C11.0184 10.0174 5.28506 11.9503 2.34844 12.9395C2.23802 12.9767 1.85271 13.0731 1.44376 13.3231C1.0348 13.5731 0.600006 14.0911 0.600006 14.6682C0.600006 15.1337 0.883287 15.596 1.23985 15.8721C1.59641 16.1482 1.9737 16.2845 2.29688 16.3878C3.46948 16.7624 7.10622 17.9277 7.79297 18.1477C8.03466 18.7274 9.35099 21.8803 9.65626 22.653C9.85749 23.1629 10.049 23.4823 10.2984 23.7358C10.4231 23.8625 10.5681 23.9735 10.7438 24.0606C10.814 24.0954 10.891 24.1222 10.9688 24.1468L10.9734 24.1487C10.9914 24.1543 11.0068 24.1639 11.025 24.1688C11.0593 24.1782 11.0822 24.1794 11.1281 24.1872C11.3109 24.2334 11.4955 24.2624 11.6602 24.2624C12.3624 24.2624 12.7922 23.9596 12.7922 23.9596L12.818 23.945L16.4297 21.4987L20.8102 24.7433C20.8718 24.8115 21.4471 25.4296 22.7156 25.4296C23.4689 25.4296 24.0664 25.1337 24.45 24.8185C24.8336 24.5033 25.0726 24.1722 25.1742 23.7559V23.7541C25.2693 23.3607 29.3063 7.13309 29.3063 7.13309L29.2992 7.15512C29.4174 6.73275 29.4484 6.33941 29.318 5.95125C29.1876 5.5631 28.844 5.19145 28.418 4.99147C27.992 4.79152 27.5752 4.73025 27.1852 4.74372ZM26.9602 6.70734C26.9544 6.73476 26.9645 6.72097 26.9555 6.75322L26.9531 6.76423L26.9508 6.77524C26.9508 6.77524 22.9638 22.7953 22.8164 23.4054C22.8272 23.3593 22.7779 23.451 22.7274 23.5064C22.6559 23.4678 22.5094 23.4183 22.5094 23.4183L22.4859 23.3981L16.5024 18.9662L12.2719 21.829L13.5305 17.8834C13.5305 17.8834 21.3979 11.5067 21.8719 11.1356C22.2535 10.8387 22.3336 10.7352 22.3336 10.6327C22.3336 10.4956 22.2423 10.396 22.0383 10.396C21.8547 10.396 21.6078 10.5358 21.4758 10.6015C19.7561 11.4599 12.2062 14.9053 8.82188 16.4465C8.28406 16.2742 4.5476 15.0766 3.28126 14.6719C3.29084 14.6686 3.28769 14.6698 3.29766 14.6664C6.23505 13.6769 11.966 11.744 17.0648 10.0271C19.6143 9.1687 22.0064 8.36455 23.8102 7.75888C25.5861 7.16254 26.8202 6.75213 26.9602 6.70734Z" fill="white"/>
</svg>
